<?xml version="1.0" encoding="UTF-8" standalone="no"?>
<svg width="200px" height="60px" viewBox="0 0 200 60" version="1.1" xmlns="http://www.w3.org/2000/svg"
    xmlns:xlink="http://www.w3.org/1999/xlink">
    <g id="Page-1" stroke="none" stroke-width="1" fill="none" fill-rule="evenodd">
        <g id="WWW" transform="translate(-140.000000, -949.000000)">
            <g id="features" transform="translate(0.000000, 687.000000)">
                <g id="Group-14" transform="translate(63.000000, 180.000000)">
                    <g id="download-on-the-app-store" transform="translate(77.000000, 82.000000)">
                        <rect id="bg" fill="#000000" x="0" y="0" width="200" height="60" rx="6" />
                        <g id="apple-logo" transform="translate(18.044444, 9.000000)" fill="#FFFFFF">
                            <path
                                d="M26.2591407,20.676 C26.2155333,15.8415 30.2274148,13.4895 30.4108667,13.38 C28.1387704,10.0755 24.6170963,9.624 23.3795481,9.588 C20.421763,9.2775 17.5526963,11.3535 16.0459852,11.3535 C14.5092,11.3535 12.1889852,9.618 9.68832593,9.669 C6.4704,9.7185 3.45998519,11.577 1.80891852,14.463 C-1.59847407,20.3475 0.942785185,28.995 4.20732593,33.7515 C5.84034815,36.081 7.74854815,38.682 10.2462,38.5905 C12.6897185,38.49 13.6024667,37.0365 16.5512296,37.0365 C19.4729259,37.0365 20.330037,38.5905 22.8773111,38.532 C25.4997704,38.49 27.150837,36.192 28.7267185,33.8415 C30.6138667,31.1715 31.3717333,28.542 31.4018074,28.407 C31.3401556,28.386 26.308763,26.4705 26.2591407,20.676 L26.2591407,20.676 Z"
                                id="Shape" />
                            <path
                                d="M21.4472889,6.459 C22.7615259,4.8195 23.6607407,2.589 23.4111259,0.3255 C21.5089407,0.4095 19.1300815,1.638 17.7602074,3.2415 C16.5482222,4.6545 15.4655556,6.9705 15.7452444,9.1485 C17.8820074,9.3075 20.0759111,8.073 21.4472889,6.459 L21.4472889,6.459 Z"
                                id="Shape" />
                        </g>
                        <g id="app-store" transform="translate(62.155556, 27.000000)" fill="#FFFFFF">
                            <path
                                d="M120.530874,12.378 C120.530874,12.951 120.493281,13.434 120.413585,13.8285 L110.795896,13.8285 C110.833489,15.2505 111.298133,16.338 112.191333,17.088 C113.00183,17.7585 114.049911,18.0945 115.337081,18.0945 C116.761089,18.0945 118.060289,17.868 119.228667,17.4135 L119.730904,19.6335 C118.365541,20.2275 116.75357,20.523 114.893489,20.523 C112.655978,20.523 110.899652,19.866 109.621504,18.5535 C108.346363,17.241 107.707289,15.4785 107.707289,13.2675 C107.707289,11.097 108.301252,9.2895 109.490681,7.848 C110.735748,6.309 112.418393,5.5395 114.535607,5.5395 C116.61523,5.5395 118.189607,6.309 119.258741,7.848 C120.105326,9.0705 120.530874,10.5825 120.530874,12.378 L120.530874,12.378 Z M117.473844,11.5485 C117.494896,10.6005 117.285881,9.7815 116.851311,9.09 C116.296444,8.2005 115.443844,7.7565 114.296519,7.7565 C113.248437,7.7565 112.395837,8.19 111.744733,9.06 C111.210919,9.7515 110.893637,10.581 110.795896,11.547 L117.473844,11.547 L117.473844,11.5485 Z"
                                id="Shape" />
                            <path
                                d="M106.193059,8.6745 C105.875778,8.616 105.537444,8.586 105.18257,8.586 C104.054793,8.586 103.182644,9.0105 102.569133,9.861 C102.035319,10.611 101.767659,11.559 101.767659,12.7035 L101.767659,20.256 L98.5632667,20.256 L98.5933407,10.395 C98.5933407,8.736 98.5527407,7.2255 98.4730444,5.8635 L101.265422,5.8635 L101.382711,8.6175 L101.47143,8.6175 C101.809763,7.671 102.343578,6.909 103.074378,6.3375 C103.788637,5.823 104.560037,5.5665 105.391585,5.5665 C105.687815,5.5665 105.955474,5.5875 106.193059,5.625 L106.193059,8.6745 L106.193059,8.6745 Z"
                                id="Shape" />
                            <path
                                d="M95.7723926,12.9405 C95.7723926,15.153 95.1378296,16.9695 93.8717111,18.39 C92.5439407,19.8525 90.7816,20.5815 88.5846889,20.5815 C86.4674741,20.5815 84.7818222,19.881 83.5247259,18.48 C82.2676296,17.079 81.6390815,15.3105 81.6390815,13.179 C81.6390815,10.9485 82.2856741,9.1215 83.5833704,7.701 C84.8780593,6.279 86.625363,5.568 88.8222741,5.568 C90.9394889,5.568 92.6431852,6.2685 93.9288519,7.671 C95.1588815,9.0315 95.7723926,10.788 95.7723926,12.9405 L95.7723926,12.9405 Z M92.4462,13.044 C92.4462,11.7165 92.162,10.578 91.5860815,9.6285 C90.9139259,8.4795 89.9530593,7.9065 88.7079926,7.9065 C87.4193185,7.9065 86.4404074,8.481 85.7682519,9.6285 C85.1923333,10.5795 84.9081333,11.736 84.9081333,13.104 C84.9081333,14.4315 85.1923333,15.57 85.7682519,16.518 C86.4614593,17.667 87.4298444,18.24 88.6794222,18.24 C89.903437,18.24 90.8643037,17.655 91.5575111,16.488 C92.1484667,15.5205 92.4462,14.37 92.4462,13.044 L92.4462,13.044 Z"
                                id="Shape" />
                            <path
                                d="M79.8286222,8.262 L76.2949185,8.262 L76.2949185,15.2505 C76.2949185,17.028 76.9174519,17.916 78.1655259,17.916 C78.738437,17.916 79.2136074,17.8665 79.5895333,17.7675 L79.6782519,20.196 C79.0466963,20.4315 78.2151481,20.55 77.1851111,20.55 C75.9189926,20.55 74.9295556,20.1645 74.2152963,19.395 C73.5040444,18.624 73.146163,17.331 73.146163,15.5145 L73.146163,8.259 L71.0409778,8.259 L71.0409778,5.859 L73.146163,5.859 L73.146163,3.2235 L76.2949185,2.2755 L76.2949185,5.859 L79.8286222,5.859 L79.8286222,8.262 L79.8286222,8.262 Z"
                                id="Shape" />
                            <path
                                d="M69.2290148,14.658 C69.2290148,16.356 68.6380593,17.7375 67.451637,18.804 C66.1479259,19.9695 64.3329556,20.5515 62.0007111,20.5515 C59.8474074,20.5515 58.1211556,20.1375 56.814437,19.308 L57.5572667,16.6425 C58.9647333,17.4915 60.509037,17.9175 62.1916815,17.9175 C63.3991556,17.9175 64.3389704,17.6445 65.0141333,17.1015 C65.6862889,16.5585 66.0216148,15.8295 66.0216148,14.9205 C66.0216148,14.1105 65.7449333,13.428 65.1900667,12.8745 C64.6382074,12.321 63.716437,11.8065 62.4292667,11.331 C58.925637,10.0275 57.1753259,8.118 57.1753259,5.607 C57.1753259,3.966 57.788837,2.6205 59.017363,1.5735 C60.2413778,0.525 61.8744,0.0015 63.9164296,0.0015 C65.7374148,0.0015 67.2501407,0.318 68.4576148,0.9495 L67.6561407,3.5565 C66.528363,2.9445 65.2532222,2.6385 63.8262074,2.6385 C62.6984296,2.6385 61.8172593,2.916 61.1857037,3.468 C60.6518889,3.9615 60.3842296,4.563 60.3842296,5.2755 C60.3842296,6.0645 60.6894815,6.717 61.3029926,7.23 C61.8368074,7.704 62.8066963,8.217 64.214163,8.7705 C65.9359037,9.462 67.2005185,10.2705 68.0140222,11.1975 C68.8245185,12.1215 69.2290148,13.278 69.2290148,14.658 L69.2290148,14.658 Z"
                                id="Shape" />
                            <path
                                d="M50.6733111,12.882 C50.6733111,15.33 50.0101778,17.265 48.6824074,18.6855 C47.4959852,19.95 46.0208519,20.5815 44.2600148,20.5815 C42.3593333,20.5815 40.9939704,19.9005 40.1639259,18.5385 L40.1037778,18.5385 L40.1037778,26.121 L36.8978815,26.121 L36.8978815,10.6005 C36.8978815,9.0615 36.8572815,7.482 36.7790889,5.862 L39.5985333,5.862 L39.7774741,8.1435 L39.8376222,8.1435 C40.9052519,6.4245 42.5277481,5.5665 44.7066148,5.5665 C46.4073037,5.5665 47.8283037,6.237 48.9681111,7.5795 C50.1034074,8.9235 50.6733111,10.6905 50.6733111,12.882 L50.6733111,12.882 Z M47.4072667,12.999 C47.4072667,11.598 47.0899852,10.443 46.4554222,9.534 C45.7622148,8.586 44.8344296,8.112 43.6660519,8.112 C42.8736,8.112 42.1563333,8.376 41.5127481,8.8965 C40.869163,9.4215 40.4496296,10.107 40.2526444,10.956 C40.1549037,11.352 40.1037778,11.676 40.1037778,11.931 L40.1037778,14.331 C40.1037778,15.378 40.4255704,16.2615 41.0661481,16.983 C41.7097333,17.703 42.5457926,18.0645 43.5773333,18.0645 C44.7848074,18.0645 45.7246222,17.5995 46.3967778,16.6725 C47.070437,15.744 47.4072667,14.52 47.4072667,12.999 L47.4072667,12.999 Z"
                                id="Shape" />
                            <path
                                d="M34.0769333,12.882 C34.0769333,15.33 33.4138,17.265 32.0875333,18.6855 C30.8996074,19.95 29.4244741,20.5815 27.663637,20.5815 C25.7629556,20.5815 24.3975926,19.9005 23.5660444,18.5385 L23.5058963,18.5385 L23.5058963,26.121 L20.3,26.121 L20.3,10.6005 C20.3,9.0615 20.2594,7.482 20.1812074,5.862 L23.0006519,5.862 L23.1795926,8.1435 L23.2397407,8.1435 C24.3088741,6.4245 25.9313704,5.5665 28.1087333,5.5665 C29.8109259,5.5665 31.2319259,6.237 32.3687259,7.5795 C33.5085333,8.9235 34.0769333,10.6905 34.0769333,12.882 L34.0769333,12.882 Z M30.8108889,12.999 C30.8108889,11.598 30.4951111,10.443 29.8605481,9.534 C29.1673407,8.586 28.2365481,8.112 27.0696741,8.112 C26.2787259,8.112 25.5599556,8.376 24.9178741,8.8965 C24.2742889,9.4215 23.8532519,10.107 23.6562667,10.956 C23.5570222,11.352 23.5074,11.676 23.5074,11.931 L23.5074,14.331 C23.5074,15.378 23.8291926,16.2615 24.4727778,16.983 C25.116363,17.7045 25.9524222,18.0645 26.9809556,18.0645 C28.1884296,18.0645 29.1282444,17.5995 29.8004,16.6725 C30.4740593,15.744 30.8108889,14.52 30.8108889,12.999 L30.8108889,12.999 Z"
                                id="Shape" />
                            <path
                                d="M17.5106296,20.256 L14.0957185,20.256 L12.2251111,14.3925 L5.7230963,14.3925 L3.94120741,20.256 L0.616518519,20.256 L7.05838519,0.294 L11.0371852,0.294 L17.5106296,20.256 L17.5106296,20.256 Z M11.6612222,11.9325 L9.96955556,6.72 C9.79061481,6.1875 9.45528889,4.9335 8.96057037,2.9595 L8.90042222,2.9595 C8.70343704,3.8085 8.38615556,5.0625 7.95008148,6.72 L6.28848889,11.9325 L11.6612222,11.9325 L11.6612222,11.9325 Z"
                                id="Shape" />
                        </g>
                        <g id="download-on-the" transform="translate(64.659259, 9.000000)" fill="#FFFFFF">
                            <path
                                d="M116.600156,7.2795 C116.600156,7.5615 116.579104,7.7985 116.541511,7.992 L111.81537,7.992 C111.836422,8.691 112.061978,9.2235 112.499556,9.5925 C112.899541,9.9225 113.415311,10.0875 114.046867,10.0875 C114.746089,10.0875 115.383659,9.9765 115.958074,9.753 L116.204681,10.845 C115.532526,11.136 114.741578,11.2815 113.825822,11.2815 C112.728119,11.2815 111.863489,10.959 111.237948,10.314 C110.6094,9.669 110.298133,8.8035 110.298133,7.7175 C110.298133,6.651 110.588348,5.763 111.173289,5.055 C111.783793,4.299 112.609326,3.921 113.651393,3.921 C114.670904,3.921 115.445311,4.299 115.9686,5.055 C116.391141,5.655 116.600156,6.3975 116.600156,7.2795 L116.600156,7.2795 Z M115.096452,6.873 C115.108481,6.4065 115.004726,6.0045 114.7912,5.6655 C114.517526,5.229 114.101,5.01 113.537111,5.01 C113.022844,5.01 112.603311,5.223 112.283022,5.6505 C112.021378,5.991 111.866496,6.3975 111.81537,6.873 L115.096452,6.873 L115.096452,6.873 Z"
                                id="Shape" />
                            <path
                                d="M107.994459,11.1495 L106.417074,11.1495 L106.417074,7.1295 C106.417074,5.862 105.941904,5.2275 104.990059,5.2275 C104.259259,5.2275 103.76003,5.595 103.486356,6.33 C103.439741,6.4845 103.412674,6.6735 103.412674,6.8955 L103.412674,11.148 L101.838296,11.148 L101.838296,0.834 L103.412674,0.834 L103.412674,5.0955 L103.442748,5.0955 C103.93897,4.32 104.650222,3.933 105.571993,3.933 C106.2246,3.933 106.76443,4.146 107.192985,4.5735 C107.7268,5.106 107.994459,5.898 107.994459,6.945 L107.994459,11.1495 L107.994459,11.1495 Z"
                                id="Shape" />
                            <path
                                d="M99.6519111,5.256 L97.916637,5.256 L97.916637,8.691 C97.916637,9.564 98.2248963,10.0005 98.8354,10.0005 C99.1180963,10.0005 99.3526741,9.9765 99.5376296,9.927 L99.5782296,11.1195 C99.266963,11.2365 98.8579556,11.295 98.3542148,11.295 C97.7316815,11.295 97.2474889,11.106 96.8971259,10.728 C96.5452593,10.35 96.3708296,9.714 96.3708296,8.8215 L96.3708296,5.256 L95.3347778,5.256 L95.3347778,4.0785 L96.3708296,4.0785 L96.3708296,2.7825 L97.9151333,2.3175 L97.9151333,4.077 L99.6504074,4.077 L99.6504074,5.256 L99.6519111,5.256 Z"
                                id="Shape" />
                            <path
                                d="M89.0462889,11.1495 L87.4719111,11.1495 L87.4719111,7.0995 C87.4719111,5.8515 86.9967407,5.2275 86.0418889,5.2275 C85.574237,5.2275 85.1968074,5.3985 84.9050889,5.742 C84.6133704,6.0855 84.4675111,6.4905 84.4675111,6.954 L84.4675111,11.148 L82.8901259,11.148 L82.8901259,6.099 C82.8901259,5.478 82.8720815,4.8045 82.8344889,4.0755 L84.2178963,4.0755 L84.2915778,5.181 L84.3351852,5.181 C84.5201407,4.8375 84.7938148,4.554 85.1516963,4.3275 C85.5802519,4.0635 86.0569259,3.93 86.5817185,3.93 C87.2418444,3.93 87.7922,4.143 88.2297778,4.5705 C88.7756222,5.094 89.0462889,5.8755 89.0462889,6.9135 L89.0462889,11.1495 L89.0462889,11.1495 Z"
                                id="Shape" />
                            <path
                                d="M80.5729185,7.5555 C80.5729185,8.643 80.2616519,9.534 79.6391185,10.233 C78.9865111,10.9515 78.1233852,11.31 77.0422222,11.31 C76.003163,11.31 75.1746222,10.9665 74.5550963,10.2765 C73.9385778,9.588 73.6303185,8.7195 73.6303185,7.6725 C73.6303185,6.5775 73.9476,5.679 74.5851704,4.9815 C75.2227407,4.284 76.0798519,3.9345 77.1610148,3.9345 C78.2000741,3.9345 79.037637,4.278 79.6691926,4.9665 C80.2706741,5.6355 80.5729185,6.4995 80.5729185,7.5555 L80.5729185,7.5555 Z M78.9398963,7.6065 C78.9398963,6.954 78.7985481,6.3945 78.5173556,5.928 C78.185037,5.364 77.7158815,5.082 77.1023704,5.082 C76.4708148,5.082 75.9896296,5.364 75.6573111,5.928 C75.3746148,6.3945 75.2347704,6.963 75.2347704,7.635 C75.2347704,8.2875 75.3761185,8.847 75.6573111,9.3135 C75.9986519,9.8775 76.4738222,10.1595 77.0873333,10.1595 C77.6888148,10.1595 78.1624815,9.873 78.5023185,9.2985 C78.7925333,8.823 78.9398963,8.259 78.9398963,7.6065 L78.9398963,7.6065 Z"
                                id="Shape" />
                            <path
                                d="M67.0952222,11.1495 L65.6967778,11.1495 L65.6230963,10.014 L65.5794889,10.014 C65.1328889,10.878 64.3720148,11.31 63.3028815,11.31 C62.4487778,11.31 61.7375259,10.9755 61.173637,10.3065 C60.6097481,9.6375 60.3285556,8.769 60.3285556,7.7025 C60.3285556,6.558 60.6338074,5.631 61.2473185,4.923 C61.8412815,4.263 62.5690741,3.933 63.4352074,3.933 C64.3870519,3.933 65.0531926,4.2525 65.4321259,4.893 L65.4622,4.893 L65.4622,0.834 L67.0395852,0.834 L67.0395852,9.2445 C67.0395852,9.933 67.0576296,10.5675 67.0952222,11.1495 L67.0952222,11.1495 Z M65.4622,8.1675 L65.4622,6.9885 C65.4622,6.7845 65.447163,6.6195 65.4185926,6.4935 C65.3298741,6.1155 65.1389037,5.7975 64.8486889,5.541 C64.5554667,5.2845 64.2020963,5.1555 63.7945926,5.1555 C63.2066444,5.1555 62.7465111,5.388 62.4081778,5.8545 C62.0728519,6.321 61.9029333,6.9165 61.9029333,7.644 C61.9029333,8.343 62.0638296,8.91 62.3871259,9.3465 C62.7284667,9.8115 63.1886,10.044 63.7645185,10.044 C64.2817926,10.044 64.6953111,9.8505 65.0095852,9.462 C65.3133333,9.1035 65.4622,8.6715 65.4622,8.1675 L65.4622,8.1675 Z"
                                id="Shape" />
                            <path
                                d="M58.1406667,11.1495 L56.7256815,11.1495 L56.6083926,10.335 L56.5647852,10.335 C56.0805926,10.9845 55.3903926,11.31 54.4941852,11.31 C53.825037,11.31 53.2837037,11.0955 52.8762,10.6695 C52.5062889,10.2825 52.3213333,9.801 52.3213333,9.2295 C52.3213333,8.3655 52.6822222,7.707 53.4085111,7.251 C54.1332963,6.795 55.1528074,6.5715 56.4655407,6.582 L56.4655407,6.45 C56.4655407,5.5185 55.9753333,5.0535 54.9934148,5.0535 C54.2941926,5.0535 53.6776741,5.229 53.145363,5.577 L52.8250741,4.545 C53.4836963,4.1385 54.2972,3.9345 55.256563,3.9345 C57.1091259,3.9345 58.0384148,4.9095 58.0384148,6.8595 L58.0384148,9.4635 C58.0384148,10.17 58.073,10.7325 58.1406667,11.1495 L58.1406667,11.1495 Z M56.504637,8.7195 L56.504637,7.629 C54.7663556,7.599 53.8972148,8.0745 53.8972148,9.054 C53.8972148,9.423 53.9964593,9.699 54.1994593,9.8835 C54.4024593,10.068 54.6610963,10.1595 54.9693556,10.1595 C55.3152074,10.1595 55.6385037,10.05 55.9332296,9.8325 C56.2294593,9.6135 56.4114074,9.336 56.4790741,8.9955 C56.4956148,8.919 56.504637,8.826 56.504637,8.7195 L56.504637,8.7195 Z"
                                id="Shape" />
                            <path
                                d="M50.5138815,7.5555 C50.5138815,8.643 50.2026148,9.534 49.5800815,10.233 C48.9274741,10.9515 48.0613407,11.31 46.9831852,11.31 C45.9411185,11.31 45.1125778,10.9665 44.4960593,10.2765 C43.8795407,9.588 43.5712815,8.7195 43.5712815,7.6725 C43.5712815,6.5775 43.888563,5.679 44.5261333,4.9815 C45.1637037,4.284 46.0208148,3.9345 47.0989704,3.9345 C48.141037,3.9345 48.9755926,4.278 49.6101556,4.9665 C50.211637,5.6355 50.5138815,6.4995 50.5138815,7.5555 L50.5138815,7.5555 Z M48.8778519,7.6065 C48.8778519,6.954 48.7365037,6.3945 48.4553111,5.928 C48.126,5.364 47.653837,5.082 47.0433333,5.082 C46.4087704,5.082 45.9275852,5.364 45.5982741,5.928 C45.3155778,6.3945 45.1757333,6.963 45.1757333,7.635 C45.1757333,8.2875 45.3170815,8.847 45.5982741,9.3135 C45.9396148,9.8775 46.4147852,10.1595 47.0282963,10.1595 C47.6297778,10.1595 48.100437,9.873 48.4402741,9.2985 C48.7334963,8.823 48.8778519,8.259 48.8778519,7.6065 L48.8778519,7.6065 Z"
                                id="Shape" />
                            <polygon id="Shape"
                                points="41.2360296 11.1495 39.6616519 11.1495 39.6616519 0.834 41.2360296 0.834" />
                            <path
                                d="M36.8903259,11.1495 L35.3144444,11.1495 L35.3144444,7.0995 C35.3144444,5.8515 34.8392741,5.2275 33.8859259,5.2275 C33.4182741,5.2275 33.0408444,5.3985 32.7476222,5.742 C32.4574074,6.0855 32.3100444,6.4905 32.3100444,6.954 L32.3100444,11.148 L30.734163,11.148 L30.734163,6.099 C30.734163,5.478 30.7146148,4.8045 30.6770222,4.0755 L32.0619333,4.0755 L32.1356148,5.181 L32.1792222,5.181 C32.3626741,4.8375 32.6363481,4.554 32.9957333,4.3275 C33.4227852,4.0635 33.900963,3.93 34.4242519,3.93 C35.0858815,3.93 35.636237,4.143 36.0738148,4.5705 C36.6181556,5.094 36.8903259,5.8755 36.8903259,6.9135 L36.8903259,11.1495 L36.8903259,11.1495 Z"
                                id="Shape" />
                            <path
                                d="M28.7207037,4.0785 L26.5027407,11.1495 L25.0591852,11.1495 L24.1404222,8.079 C23.9073481,7.3125 23.7178815,6.5505 23.5705185,5.7945 L23.5419481,5.7945 C23.4051111,6.5715 23.2156444,7.332 22.9720444,8.079 L21.9961407,11.1495 L20.5360444,11.1495 L18.4504074,4.0785 L20.0698963,4.0785 L20.8713704,7.44 C21.0653481,8.235 21.2247407,8.9925 21.3525556,9.7095 L21.3811259,9.7095 C21.4984148,9.1185 21.6923926,8.3655 21.9660667,7.455 L22.9720444,4.08 L24.2562074,4.08 L25.2200815,7.383 C25.4531556,8.1885 25.6426222,8.964 25.7884815,9.711 L25.8320889,9.711 C25.9388519,8.9835 26.0997481,8.208 26.3132741,7.383 L27.1733926,4.08 L28.7207037,4.08 L28.7207037,4.0785 Z"
                                id="Shape" />
                            <path
                                d="M16.9076074,7.5555 C16.9076074,8.643 16.5963407,9.534 15.9738074,10.233 C15.3212,10.9515 14.4565704,11.31 13.3769111,11.31 C12.3363481,11.31 11.5078074,10.9665 10.8897852,10.2765 C10.2732667,9.588 9.96500741,8.7195 9.96500741,7.6725 C9.96500741,6.5775 10.2822889,5.679 10.9198593,4.9815 C11.5574296,4.284 12.4145407,3.9345 13.4942,3.9345 C14.534763,3.9345 15.3708222,4.278 16.0038815,4.9665 C16.605363,5.6355 16.9076074,6.4995 16.9076074,7.5555 L16.9076074,7.5555 Z M15.2730815,7.6065 C15.2730815,6.954 15.1317333,6.3945 14.8505407,5.928 C14.5197259,5.364 14.0490667,5.082 13.4370593,5.082 C12.804,5.082 12.3228148,5.364 11.992,5.928 C11.7093037,6.3945 11.5694593,6.963 11.5694593,7.635 C11.5694593,8.2875 11.7108074,8.847 11.992,9.3135 C12.3333407,9.8775 12.8085111,10.1595 13.4220222,10.1595 C14.0235037,10.1595 14.4956667,9.873 14.8355037,9.2985 C15.1272222,8.823 15.2730815,8.259 15.2730815,7.6065 L15.2730815,7.6065 Z"
                                id="Shape" />
                            <path
                                d="M8.09740741,6.0135 C8.09740741,7.779 7.5666,9.108 6.50648889,10.0005 C5.52457037,10.824 4.12913333,11.2365 2.32168148,11.2365 C1.42547407,11.2365 0.658585185,11.1975 0.0165037037,11.1195 L0.0165037037,1.473 C0.854066667,1.338 1.75628889,1.269 2.73068889,1.269 C4.45242963,1.269 5.75012593,1.6425 6.62528148,2.3895 C7.6056963,3.234 8.09740741,4.4415 8.09740741,6.0135 L8.09740741,6.0135 Z M6.43581481,6.057 C6.43581481,4.9125 6.13206667,4.035 5.52457037,3.423 C4.91707407,2.8125 4.02988889,2.5065 2.86151111,2.5065 C2.36528889,2.5065 1.94274815,2.5395 1.59238519,2.6085 L1.59238519,9.942 C1.78636296,9.972 2.14123704,9.9855 2.65700741,9.9855 C3.86297778,9.9855 4.79377037,9.651 5.44938519,8.982 C6.105,8.313 6.43581481,7.338 6.43581481,6.057 L6.43581481,6.057 Z"
                                id="Shape" />
                        </g>
                    </g>
                </g>
            </g>
        </g>
    </g>
</svg>