<svg width="174" height="52" viewBox="0 0 174 52" fill="none" xmlns="http://www.w3.org/2000/svg">
    <path
        d="M168.12 0H5.21303C2.33395 0 0 2.33395 0 5.21303V46.787C0 49.666 2.33395 52 5.21303 52H168.12C170.999 52 173.333 49.666 173.333 46.787V5.21303C173.333 2.33395 170.999 0 168.12 0Z"
        fill="black" />
    <path fill-rule="evenodd" clip-rule="evenodd"
        d="M138.754 40.0834H141.186V23.8321H138.754V40.0834ZM160.658 29.686L157.869 36.732H157.785L154.894 29.686H152.273L156.611 39.5335L154.139 45.0117H156.675L163.361 29.686H160.658ZM146.865 38.2374C146.069 38.2374 144.957 37.8409 144.957 36.8568C144.957 35.6036 146.342 35.1226 147.537 35.1226C148.605 35.1226 149.108 35.3527 149.757 35.666C149.57 37.1714 148.269 38.2374 146.865 38.2374ZM147.159 29.3311C145.398 29.3311 143.575 30.1046 142.82 31.8193L144.978 32.7176C145.44 31.8193 146.3 31.5255 147.2 31.5255C148.458 31.5255 149.737 32.2782 149.757 33.6172V33.7836C149.317 33.5327 148.375 33.157 147.221 33.157C144.895 33.157 142.527 34.4323 142.527 36.8152C142.527 38.9901 144.434 40.3915 146.572 40.3915C148.207 40.3915 149.108 39.6596 149.674 38.8016H149.757V40.0561H152.106V33.8252C152.106 30.9405 149.946 29.3311 147.159 29.3311ZM132.13 31.6646H128.672V26.0941H132.13C133.948 26.0941 134.981 27.5956 134.981 28.8787C134.981 30.1384 133.948 31.6646 132.13 31.6646ZM132.067 23.8321H126.24V40.0834H128.672V33.9266H132.067C134.762 33.9266 137.412 31.9792 137.412 28.8787C137.412 25.7782 134.762 23.8321 132.067 23.8321ZM100.292 38.24C98.6123 38.24 97.2061 36.8373 97.2061 34.9107C97.2061 32.9633 98.6123 31.5385 100.292 31.5385C101.951 31.5385 103.253 32.9633 103.253 34.9107C103.253 36.8373 101.951 38.24 100.292 38.24ZM103.085 30.596H103C102.454 29.9473 101.405 29.361 100.082 29.361C97.3104 29.361 94.7703 31.7894 94.7703 34.9107C94.7703 38.0099 97.3104 40.4188 100.082 40.4188C101.405 40.4188 102.454 39.8325 103 39.1617H103.085V39.9586C103.085 42.0737 101.951 43.2047 100.124 43.2047C98.6332 43.2047 97.7092 42.1361 97.3325 41.2352L95.2108 42.1153C95.8195 43.5817 97.4368 45.3822 100.124 45.3822C102.98 45.3822 105.394 43.7065 105.394 39.6232V29.6951H103.085V30.596ZM107.074 40.0834H109.51V23.8308H107.074V40.0834ZM113.101 34.7222C113.037 32.5863 114.758 31.4969 115.998 31.4969C116.964 31.4969 117.782 31.9779 118.056 32.6695L113.101 34.7222ZM120.658 32.8788C120.197 31.6438 118.789 29.361 115.913 29.361C113.058 29.361 110.686 31.6009 110.686 34.8899C110.686 37.9891 113.037 40.4188 116.187 40.4188C118.727 40.4188 120.197 38.8692 120.806 37.9683L118.916 36.7112C118.286 37.6329 117.425 38.24 116.187 38.24C114.947 38.24 114.065 37.6745 113.499 36.5656L120.911 33.5067L120.658 32.8788ZM61.6102 31.0575V33.4027H67.2377C67.0696 34.7222 66.6278 35.6855 65.9566 36.355C65.1368 37.1727 63.857 38.0736 61.6102 38.0736C58.1462 38.0736 55.438 35.2877 55.438 31.8323C55.438 28.3756 58.1462 25.591 61.6102 25.591C63.4791 25.591 64.8436 26.3242 65.851 27.2667L67.5101 25.6118C66.1039 24.2715 64.235 23.2445 61.6102 23.2445C56.8651 23.2445 52.8758 27.099 52.8758 31.8323C52.8758 36.5656 56.8651 40.4188 61.6102 40.4188C64.1711 40.4188 66.1039 39.5803 67.6156 38.0099C69.1691 36.4603 69.6513 34.2828 69.6513 32.5226C69.6513 31.9779 69.6096 31.4761 69.5262 31.0575H61.6102ZM76.049 38.24C74.3691 38.24 72.9199 36.8581 72.9199 34.8899C72.9199 32.8996 74.3691 31.5385 76.049 31.5385C77.7289 31.5385 79.1768 32.8996 79.1768 34.8899C79.1768 36.8581 77.7289 38.24 76.049 38.24ZM76.049 29.361C72.9838 29.361 70.4841 31.6854 70.4841 34.8899C70.4841 38.0736 72.9838 40.4188 76.049 40.4188C79.1143 40.4188 81.6126 38.0736 81.6126 34.8899C81.6126 31.6854 79.1143 29.361 76.049 29.361ZM88.1863 38.24C86.5064 38.24 85.0584 36.8581 85.0584 34.8899C85.0584 32.8996 86.5064 31.5385 88.1863 31.5385C89.8662 31.5385 91.3141 32.8996 91.3141 34.8899C91.3141 36.8581 89.8662 38.24 88.1863 38.24ZM88.1863 29.361C85.121 29.361 82.6227 31.6854 82.6227 34.8899C82.6227 38.0736 85.121 40.4188 88.1863 40.4188C91.2515 40.4188 93.7499 38.0736 93.7499 34.8899C93.7499 31.6854 91.2515 29.361 88.1863 29.361Z"
        fill="white" />
    <path fill-rule="evenodd" clip-rule="evenodd"
        d="M103.18 9.71313V14.5544L103.21 15.685L99.5315 9.71313H98.0873V18.0185H99.3676V12.8745L99.3372 11.7453L103.194 18.0185H104.463V9.71313H103.18Z"
        fill="white" />
    <path fill-rule="evenodd" clip-rule="evenodd"
        d="M95.617 13.866C95.617 14.7595 95.3329 15.5043 94.7726 16.079C94.215 16.6523 93.5227 16.943 92.714 16.943C91.9054 16.943 91.213 16.6523 90.6541 16.079C90.0952 15.5043 89.8111 14.7595 89.8111 13.866C89.8111 12.9725 90.0952 12.2277 90.6541 11.653C91.213 11.0797 91.9054 10.7903 92.714 10.7903C93.5227 10.7903 94.215 11.0797 94.7726 11.653C95.3329 12.2277 95.617 12.9725 95.617 13.866ZM92.714 9.53381C91.5222 9.53381 90.5141 9.95712 89.7133 10.793C88.9139 11.6262 88.5083 12.659 88.5083 13.866C88.5083 15.073 88.9139 16.1071 89.7133 16.939C90.5127 17.7749 91.5222 18.1969 92.714 18.1969C93.9045 18.1969 94.9153 17.7749 95.7147 16.939C96.5154 16.1058 96.9198 15.0716 96.9198 13.866C96.9198 12.6671 96.5141 11.6356 95.7094 10.797C94.9048 9.95846 93.8966 9.53381 92.714 9.53381Z"
        fill="white" />
    <path fill-rule="evenodd" clip-rule="evenodd"
        d="M79.7277 10.9691H81.9422V18.0179H83.2239V10.9691H85.4384V9.71387H79.7277V10.9691Z" fill="white" />
    <path fill-rule="evenodd" clip-rule="evenodd" d="M77.4245 18.0179H78.7075V9.71252H77.4245V18.0179Z" fill="white" />
    <path fill-rule="evenodd" clip-rule="evenodd"
        d="M68.0347 10.9691H70.2492V18.0179H71.5322V10.9691H73.7467V9.71387H68.0347V10.9691Z" fill="white" />
    <path fill-rule="evenodd" clip-rule="evenodd"
        d="M62.3443 18.0182H67.2371V16.763H63.6273V14.483H66.883V13.2493H63.6273V10.9693H67.2371V9.71277H62.3443V18.0182Z"
        fill="white" />
    <path fill-rule="evenodd" clip-rule="evenodd"
        d="M61.0693 13.4512H56.9852V14.685H59.8498C59.7758 15.2757 59.571 15.7459 59.238 16.0848C58.6751 16.6542 57.9616 16.9422 57.1173 16.9422C56.3219 16.9422 55.6242 16.6555 55.0442 16.0875C54.4641 15.5209 54.1708 14.7734 54.1708 13.8665C54.1708 12.9583 54.4641 12.2108 55.0442 11.6441C55.6242 11.0775 56.3219 10.7895 57.1173 10.7895C58.0065 10.7895 58.6831 11.0855 59.1865 11.695L59.2803 11.8076L60.1629 10.91L60.0863 10.8163C59.7652 10.4291 59.3318 10.1143 58.7967 9.88125C58.2655 9.65084 57.7013 9.53296 57.1173 9.53296C55.9427 9.53296 54.9292 9.95225 54.1073 10.7788C53.2842 11.6053 52.8666 12.6435 52.8666 13.8665C52.8666 15.0882 53.2842 16.1264 54.1073 16.9529C54.9292 17.7781 55.9413 18.1974 57.1173 18.1974C58.3448 18.1974 59.3569 17.7834 60.1233 16.969C60.8024 16.2791 61.1473 15.3454 61.1473 14.192C61.1473 13.9884 61.1275 13.7754 61.0892 13.5624L61.0693 13.4512Z"
        fill="white" />
    <path fill-rule="evenodd" clip-rule="evenodd"
        d="M12.3328 11.3506C11.9535 11.7497 11.7294 12.3711 11.7294 13.1771V41.9266C11.7294 42.7326 11.9535 43.3527 12.3328 43.7531L12.4279 43.8467L28.5753 27.7423V27.5525V27.3614L12.4279 11.2557L12.3328 11.3506Z"
        fill="url(#paint0_linear)" />
    <path fill-rule="evenodd" clip-rule="evenodd"
        d="M28.5753 27.3614V27.5525V27.7423L33.9565 33.1126L34.0803 33.0437L40.4558 29.4284C42.2778 28.3975 42.2778 26.7075 40.4558 25.6753L34.0803 22.0613L33.9578 21.9924L28.5753 27.3614Z"
        fill="url(#paint1_linear)" />
    <path fill-rule="evenodd" clip-rule="evenodd"
        d="M12.3328 43.7531C12.9323 44.3875 13.9241 44.4655 15.041 43.8337L34.0803 33.0437L28.5753 27.5525L12.3328 43.7531Z"
        fill="url(#paint2_linear)" />
    <path fill-rule="evenodd" clip-rule="evenodd"
        d="M12.3328 11.3507L28.5753 27.5526L34.0803 22.0601L15.041 11.2701C14.5171 10.9737 14.0205 10.8333 13.58 10.8333C13.0809 10.8333 12.6508 11.014 12.3328 11.3507Z"
        fill="url(#paint3_linear)" />
    <defs>
        <linearGradient id="paint0_linear" x1="27.1742" y1="12.78" x2="1.2661" y2="19.69"
            gradientUnits="userSpaceOnUse">
            <stop stop-color="#00A1FF" />
            <stop offset="0.2601" stop-color="#00BEFF" />
            <stop offset="0.5122" stop-color="#00D2FF" />
            <stop offset="0.7604" stop-color="#00DFFF" />
            <stop offset="1" stop-color="#00E3FF" />
        </linearGradient>
        <linearGradient id="paint1_linear" x1="42.8818" y1="27.5008" x2="11.3019" y2="27.5008"
            gradientUnits="userSpaceOnUse">
            <stop stop-color="#FFE000" />
            <stop offset="0.4087" stop-color="#FFBD00" />
            <stop offset="0.7754" stop-color="#FFA500" />
            <stop offset="1" stop-color="#FF9C00" />
        </linearGradient>
        <linearGradient id="paint2_linear" x1="31.1384" y1="30.5011" x2="10.3529" y2="65.5991"
            gradientUnits="userSpaceOnUse">
            <stop stop-color="#FF3A44" />
            <stop offset="1" stop-color="#C31162" />
        </linearGradient>
        <linearGradient id="paint3_linear" x1="8.1729" y1="1.86419" x2="17.4789" y2="17.4061"
            gradientUnits="userSpaceOnUse">
            <stop stop-color="#32A071" />
            <stop offset="0.0685" stop-color="#2DA771" />
            <stop offset="0.4762" stop-color="#15CF74" />
            <stop offset="0.8009" stop-color="#06E775" />
            <stop offset="1" stop-color="#00F076" />
        </linearGradient>
    </defs>
</svg>